<svg width="18" height="18" viewBox="0 0 18 18" fill="none" xmlns="http://www.w3.org/2000/svg">
<g id="4781856_arrow_arrows_bottom_direction_down_icon 1" clip-path="url(#clip0_340_567)">
<g id="Layer 2">
<path id="Vector" d="M1.6852 9.00035C1.68477 8.92632 1.69896 8.85294 1.72695 8.7844C1.75494 8.71587 1.79619 8.65353 1.84832 8.60097L6.91082 3.53847C7.01675 3.43255 7.1604 3.37305 7.3102 3.37305C7.45999 3.37305 7.60365 3.43255 7.70957 3.53847C7.81549 3.64439 7.875 3.78805 7.875 3.93785C7.875 4.08764 7.81549 4.2313 7.70957 4.33722L3.04082 9.00035L7.70957 13.6635C7.76202 13.7159 7.80362 13.7782 7.83201 13.8467C7.86039 13.9152 7.875 13.9887 7.875 14.0628C7.875 14.137 7.86039 14.2105 7.83201 14.279C7.80362 14.3475 7.76202 14.4098 7.70957 14.4622C7.65713 14.5147 7.59486 14.5563 7.52634 14.5847C7.45781 14.613 7.38437 14.6277 7.3102 14.6277C7.23603 14.6277 7.16258 14.613 7.09406 14.5847C7.02553 14.5563 6.96327 14.5147 6.91082 14.4622L1.84832 9.39972C1.79619 9.34716 1.75494 9.28483 1.72695 9.2163C1.69896 9.14776 1.68477 9.07438 1.6852 9.00035Z" fill="black"/>
<path id="Vector_2" d="M1.6875 9C1.6875 8.85082 1.74676 8.70774 1.85225 8.60225C1.95774 8.49676 2.10082 8.4375 2.25 8.4375L15.75 8.4375C15.8992 8.4375 16.0423 8.49676 16.1477 8.60225C16.2532 8.70774 16.3125 8.85082 16.3125 9C16.3125 9.14918 16.2532 9.29226 16.1477 9.39775C16.0423 9.50324 15.8992 9.5625 15.75 9.5625L2.25 9.5625C2.10082 9.5625 1.95774 9.50324 1.85225 9.39775C1.74676 9.29226 1.6875 9.14918 1.6875 9Z" fill="black"/>
</g>
</g>
<defs>
<clipPath id="clip0_340_567">
<rect width="18" height="18" fill="white" transform="matrix(0 1 -1 0 18 0)"/>
</clipPath>
</defs>
</svg>
