<svg width="30" height="30" viewBox="0 0 30 30" fill="none" xmlns="http://www.w3.org/2000/svg">
<g id="2998140_eco_garden_grass_icon 1" clip-path="url(#clip0_555_279)">
<g id="Group">
<path id="Vector" d="M28.2018 14.6855L26.4728 21.1685L24.5078 21.2145C24.5078 21.2145 24.8358 15.6025 28.2018 14.6855Z" fill="#3BB417"/>
<path id="Vector_2" d="M26.7406 9.95117C26.7406 9.95117 24.7226 16.7282 24.8216 17.9312L24.3636 21.0362L22.4766 21.1402C22.4766 21.1402 22.9636 12.0802 26.7406 9.95117Z" fill="#2B8C0C"/>
<path id="Vector_3" d="M23.2171 15.0125L22.5831 17.4115L19.6641 11.6035C19.6641 11.6035 22.3721 12.0005 23.2171 15.0125Z" fill="#3BB417"/>
<g id="Group_2">
<path id="Vector_4" d="M11.8581 14.4434L10.1291 20.9264L8.16406 20.9724C8.16406 20.9724 8.49106 15.3594 11.8581 14.4434Z" fill="#3BB417"/>
<path id="Vector_5" d="M1.9375 14.8672L3.9715 21.2612L5.9365 21.2152C5.9365 21.2152 5.3445 15.6232 1.9375 14.8672Z" fill="#3BB417"/>
<path id="Vector_6" d="M11.9297 17.2656L12.9707 21.2676L14.9357 21.2216C14.9357 21.2216 14.9817 18.8906 11.9297 17.2656Z" fill="#3BB417"/>
<path id="Vector_7" d="M21.1471 14.4121L19.4181 20.8951L17.4531 20.9411C17.4531 20.9411 17.7811 15.3281 21.1471 14.4121Z" fill="#3BB417"/>
<path id="Vector_8" d="M17.8354 12.9844L16.7674 16.4604L16.1484 15.9314C16.1484 15.9314 16.7034 13.4034 17.8354 12.9844Z" fill="#3BB417"/>
<path id="Vector_9" d="M3.07812 10.0703C3.07812 10.0703 5.41412 16.7443 5.37112 17.9503L5.97513 21.0303L7.86512 21.0443C7.86512 21.0443 6.95112 12.0183 3.07812 10.0703Z" fill="#2B8C0C"/>
<path id="Vector_10" d="M12.0547 9.98242C12.0547 9.98242 14.3907 16.6564 14.3477 17.8624L14.9517 20.9424L16.8417 20.9564C16.8417 20.9564 15.9287 11.9304 12.0547 9.98242Z" fill="#2B8C0C"/>
<path id="Vector_11" d="M6.65625 14.7566L7.40225 17.1236L10.0432 11.1836C10.0432 11.1836 7.35825 11.7076 6.65625 14.7566Z" fill="#3BB417"/>
<path id="Vector_12" d="M29.6434 13.1457C29.5324 12.9867 29.3274 12.9287 29.1494 13.0087C27.2454 13.8617 26.0904 15.3337 25.3904 16.7897C26.1844 10.4657 28.4204 9.09566 28.4434 9.08166C28.6104 8.99166 28.6904 8.79766 28.6374 8.61666C28.5834 8.43566 28.4444 8.30266 28.2224 8.32966C28.0994 8.33866 25.4634 8.61966 23.3844 14.4197C21.7874 10.7887 18.9014 10.7187 18.7684 10.7177C18.5784 10.7067 18.4294 10.8357 18.3804 11.0097C18.3304 11.1827 18.4034 11.3677 18.5564 11.4617C18.5604 11.4637 18.6144 11.4987 18.7034 11.5637C17.8174 12.0047 16.5594 12.7217 15.7964 14.4527C13.4424 8.72066 10.7844 8.56366 10.6604 8.56066C10.4514 8.54866 10.3094 8.68266 10.2634 8.86366C10.2164 9.04466 10.3044 9.23566 10.4704 9.32066C10.4904 9.33066 11.6834 10.0007 12.7594 12.7017C12.1144 12.9887 8.38035 14.9177 8.15035 20.8287L7.92535 20.8277C7.96035 19.8887 7.94935 19.1917 7.90735 18.6217C7.90735 18.6177 7.90935 18.6157 7.90935 18.6117C8.04235 13.0347 11.1824 11.1247 11.3164 11.0457C11.4764 10.9517 11.5514 10.7607 11.4984 10.5837C11.4454 10.4067 11.2524 10.2827 11.0934 10.2977C10.9604 10.3047 8.08035 10.5117 6.65635 14.2147C4.30635 8.51866 1.65935 8.36166 1.53635 8.35866C1.32435 8.35066 1.18535 8.48166 1.13835 8.66266C1.09235 8.84366 1.17935 9.03466 1.34535 9.12066C1.37335 9.13466 3.67235 10.3987 4.76435 16.6777C3.99635 15.2567 2.77235 13.8417 0.829354 13.0787C0.651354 13.0077 0.445354 13.0757 0.342354 13.2397C0.239354 13.4037 0.269354 13.6167 0.411354 13.7477C0.440354 13.7747 3.34935 16.5017 3.23135 21.2097C3.22835 21.3177 3.26935 21.4227 3.34535 21.4997C3.42035 21.5767 3.52335 21.6207 3.63235 21.6207L10.3804 21.6367C10.3964 21.6387 10.4104 21.6447 10.4274 21.6447C10.4344 21.6447 10.4424 21.6437 10.4504 21.6427C10.4584 21.6417 10.4644 21.6377 10.4724 21.6367L12.7504 21.6417H12.7524C12.7594 21.6417 12.7654 21.6427 12.7724 21.6427C12.7724 21.6427 12.7744 21.6417 12.7764 21.6417L17.6514 21.6527L17.6534 21.6537C17.6594 21.6537 17.6654 21.6547 17.6704 21.6547C17.6724 21.6547 17.6734 21.6537 17.6754 21.6537L19.6744 21.6587C19.6764 21.6587 19.6774 21.6597 19.6794 21.6597C19.6834 21.6597 19.6874 21.6597 19.6914 21.6587L26.7334 21.6747C26.7374 21.6757 26.7414 21.6757 26.7444 21.6757C26.7504 21.6757 26.7574 21.6747 26.7644 21.6747C26.7834 21.6737 26.7994 21.6637 26.8184 21.6597C26.8494 21.6527 26.8804 21.6477 26.9084 21.6347C26.9294 21.6247 26.9464 21.6087 26.9654 21.5957C26.9884 21.5797 27.0114 21.5657 27.0304 21.5447C27.0464 21.5267 27.0564 21.5057 27.0694 21.4857C27.0844 21.4627 27.0994 21.4417 27.1094 21.4157C27.1184 21.3917 27.1204 21.3657 27.1244 21.3397C27.1284 21.3177 27.1374 21.2987 27.1374 21.2757C27.1374 21.2707 27.1344 21.2667 27.1344 21.2617C27.1344 21.2557 27.1374 21.2507 27.1364 21.2457C26.7974 16.5667 29.5724 13.6867 29.6014 13.6577C29.7344 13.5197 29.7524 13.3047 29.6434 13.1457ZM9.27935 11.8727C8.55235 12.7927 7.77535 14.1857 7.37635 16.1607C7.28835 15.8927 7.19835 15.6517 7.11035 15.4017C7.61235 13.5317 8.47735 12.4697 9.27935 11.8727ZM4.03835 20.8197C4.01535 18.2107 3.14835 16.2117 2.33935 14.9107C4.63835 16.8817 5.14035 20.0947 5.22635 20.8227L4.03835 20.8197ZM7.12135 20.8267L6.03735 20.8237C5.71735 15.4857 4.64135 12.3837 3.64235 10.6137C4.56335 11.6597 5.65835 13.4597 6.66035 16.5487C6.99435 17.5777 7.21835 18.2697 7.12135 20.8267ZM24.3204 20.8677L23.1574 20.8647C22.9674 18.6007 23.1494 17.9377 23.4024 17.0587L23.5114 16.6747C24.3614 13.5627 25.3684 11.7307 26.2374 10.6537C25.3264 12.4497 24.4024 15.5757 24.3204 20.8677ZM17.0394 18.7327C17.1394 15.3487 18.3434 13.3117 19.3914 12.1677C19.7514 12.5287 20.1854 13.0357 20.6084 13.7157C19.1154 14.8877 17.4634 17.0457 17.2874 20.8507L17.0534 20.8497C17.0864 19.9467 17.0794 19.2637 17.0394 18.7327ZM20.5804 14.8037C19.6074 16.6167 19.1554 18.6867 19.2524 20.8557L18.0914 20.8527C18.2404 17.8187 19.3904 15.9377 20.5804 14.8037ZM21.3274 15.1137C21.7834 16.1857 22.1504 17.5167 22.2674 19.1587C22.2684 19.1727 22.2754 19.1837 22.2774 19.1977C22.2744 19.6477 22.2974 20.1927 22.3514 20.8637L20.0544 20.8587C19.9564 18.7917 20.3914 16.8257 21.3274 15.1137ZM22.9864 15.6267C22.9024 15.9017 22.8174 16.1677 22.7364 16.4637L22.6864 16.6407C22.1454 14.4427 21.1814 12.9557 20.3704 12.0277C21.2664 12.5397 22.3274 13.5697 22.9864 15.6267ZM17.6724 13.1767C17.1894 14.0157 16.7634 15.0647 16.5014 16.3617C16.4144 16.0957 16.3254 15.8547 16.2364 15.6067C16.5564 14.4347 17.0894 13.6907 17.6724 13.1767ZM15.7594 16.6737L15.8244 16.8717C16.0154 17.4537 16.1654 17.9277 16.2334 18.7677C16.2334 18.7767 16.2314 18.7847 16.2314 18.7947C16.2314 18.8137 16.2384 18.8297 16.2404 18.8467C16.2764 19.3467 16.2804 19.9927 16.2494 20.8477L15.1454 20.8447C14.8094 15.5987 13.7444 12.5337 12.7514 10.7897C13.6724 11.8247 14.7654 13.6057 15.7594 16.6737ZM11.4064 16.6997C11.8994 17.7307 12.3354 19.0707 12.3554 20.8387L10.8044 20.8347C10.7344 19.2417 11.0094 17.8437 11.4064 16.6997ZM12.7574 18.0147C13.5824 19.1937 14.0404 20.2797 14.2444 20.8427L13.1564 20.8397C13.1444 19.7627 12.9884 18.8217 12.7574 18.0147ZM14.1564 18.7257C13.6374 17.7937 12.8764 16.7027 11.8144 15.6867C12.2854 14.6567 12.7954 13.9297 13.0754 13.5717C13.5094 14.8787 13.9024 16.5527 14.1564 18.7257ZM11.4514 14.5837C10.6884 15.9817 9.89035 18.1337 10.0034 20.8327L8.95535 20.8307C9.09035 17.5847 10.3444 15.6527 11.4514 14.5837ZM26.3204 20.8717L25.1304 20.8687C25.1984 20.0137 25.5884 16.9207 27.7304 14.9057C26.9854 16.2397 26.2264 18.2757 26.3204 20.8717Z" fill="black"/>
</g>
</g>
</g>
<defs>
<clipPath id="clip0_555_279">
<rect width="30" height="30" fill="white"/>
</clipPath>
</defs>
</svg>
