<svg width="18" height="22" viewBox="0 0 18 22" fill="none" xmlns="http://www.w3.org/2000/svg">
<path d="M18 16.9915C18 17.2666 17.9574 17.6257 17.8722 18.0688C17.7869 18.5119 17.6974 18.8608 17.6037 19.1155C17.4247 19.6248 16.9048 20.1647 16.044 20.7352C15.2429 21.2547 14.4503 21.5145 13.6662 21.5145C13.4361 21.5145 13.2124 21.4966 12.995 21.461C12.7777 21.4253 12.5327 21.3617 12.2599 21.27C11.9872 21.1783 11.7848 21.1044 11.6527 21.0484C11.5206 20.9924 11.2841 20.888 10.9432 20.7352C10.6023 20.5824 10.3935 20.4907 10.3168 20.4601C9.48153 20.1036 8.7358 19.6808 8.07955 19.1919C6.98864 18.3871 5.86151 17.2895 4.69815 15.899C3.5348 14.5085 2.61648 13.1613 1.94318 11.8574C1.53409 11.073 1.1804 10.1817 0.882102 9.18337C0.856534 9.09169 0.77983 8.84212 0.651989 8.43465C0.524148 8.02718 0.43679 7.74449 0.389915 7.5866C0.34304 7.4287 0.28125 7.18677 0.204545 6.86079C0.127841 6.53481 0.0745739 6.24194 0.0447443 5.98218C0.0149148 5.72242 0 5.45502 0 5.17997C0 4.24279 0.21733 3.29542 0.651989 2.33786C1.12926 1.309 1.58097 0.687607 2.0071 0.473685C2.22017 0.36163 2.51207 0.254669 2.88281 0.152802C3.25355 0.0509339 3.55398 0 3.78409 0C3.90341 0 3.9929 0.0152802 4.05256 0.0458405C4.20597 0.106961 4.43182 0.494058 4.73011 1.20713C4.82386 1.40068 4.9517 1.67572 5.11364 2.03226C5.27557 2.3888 5.42472 2.71223 5.56108 3.00255C5.69744 3.29287 5.82955 3.56537 5.95739 3.82004C5.98295 3.86079 6.05753 3.98812 6.18111 4.20204C6.30469 4.41597 6.39631 4.59678 6.45597 4.74449C6.51562 4.8922 6.54545 5.03736 6.54545 5.17997C6.54545 5.38371 6.42401 5.63838 6.18111 5.94398C5.93821 6.24958 5.67401 6.52972 5.38849 6.78439C5.10298 7.03906 4.83878 7.30901 4.59588 7.59424C4.35298 7.87947 4.23153 8.11376 4.23153 8.29713C4.23153 8.38881 4.25284 8.50341 4.29545 8.64093C4.33807 8.77845 4.37429 8.88286 4.40412 8.95417C4.43395 9.02548 4.49361 9.14772 4.5831 9.3209C4.67259 9.49407 4.72159 9.59085 4.73011 9.61122C5.37784 11.0068 6.11932 12.2038 6.95455 13.2021C7.78977 14.2004 8.79119 15.0866 9.95881 15.8608C9.97585 15.871 10.0568 15.9296 10.2017 16.0365C10.3466 16.1435 10.4489 16.2148 10.5085 16.2504C10.5682 16.2861 10.6555 16.3294 10.7706 16.3803C10.8857 16.4313 10.9815 16.4567 11.0582 16.4567C11.2116 16.4567 11.4077 16.3116 11.6463 16.0212C11.8849 15.7309 12.1108 15.4151 12.3239 15.0739C12.5369 14.7326 12.7713 14.4168 13.027 14.1265C13.2827 13.8362 13.4957 13.691 13.6662 13.691C13.7855 13.691 13.907 13.7267 14.0305 13.798C14.1541 13.8693 14.3054 13.9788 14.4844 14.1265C14.6634 14.2742 14.7699 14.3633 14.804 14.3939C15.017 14.5467 15.245 14.7046 15.4879 14.8676C15.7308 15.0306 16.0014 15.2088 16.2997 15.4024C16.598 15.5959 16.8281 15.7487 16.9901 15.8608C17.5866 16.2173 17.9105 16.4873 17.9616 16.6707C17.9872 16.742 18 16.8489 18 16.9915Z" fill="#FFD074"/>
</svg>
