<svg width="23" height="23" viewBox="0 0 23 23" fill="none" xmlns="http://www.w3.org/2000/svg">
<g id="1904674_accept_approved_check_checked_confirm_icon 1" clip-path="url(#clip0_785_98)">
<path id="Vector" d="M11.5 0C9.22552 0 7.00211 0.674463 5.11095 1.9381C3.21978 3.20174 1.7458 4.99779 0.875391 7.09914C0.00498273 9.20049 -0.222756 11.5128 0.220974 13.7435C0.664704 15.9743 1.75997 18.0234 3.36828 19.6317C4.97658 21.24 7.02569 22.3353 9.25647 22.779C11.4872 23.2228 13.7995 22.995 15.9009 22.1246C18.0022 21.2542 19.7983 19.7802 21.0619 17.8891C22.3255 15.9979 23 13.7745 23 11.5C22.9967 8.45103 21.784 5.5279 19.6281 3.37195C17.4721 1.216 14.549 0.00332935 11.5 0ZM11.5 21.9219C9.43875 21.9219 7.42379 21.3106 5.70992 20.1655C3.99605 19.0203 2.66026 17.3926 1.87145 15.4883C1.08264 13.5839 0.876253 11.4884 1.27838 9.46679C1.68051 7.44515 2.6731 5.58815 4.13063 4.13062C5.58815 2.6731 7.44515 1.68051 9.4668 1.27838C11.4884 0.876248 13.5839 1.08264 15.4883 1.87144C17.3926 2.66025 19.0203 3.99605 20.1655 5.70992C21.3106 7.42378 21.9219 9.43875 21.9219 11.5C21.9186 14.263 20.8195 16.9119 18.8657 18.8657C16.9119 20.8195 14.263 21.9185 11.5 21.9219Z" fill="#EBDAB2"/>
<path id="Vector_2" d="M15.7944 7.61172L9.05968 14.235L7.21788 12.2962C7.11857 12.1965 6.98419 12.1395 6.84347 12.1376C6.70275 12.1356 6.56684 12.1888 6.46478 12.2857C6.36271 12.3826 6.30259 12.5155 6.29726 12.6562C6.29193 12.7968 6.34181 12.9339 6.43624 13.0383L8.65538 15.3742C8.70464 15.4259 8.76369 15.4673 8.82908 15.496C8.89447 15.5247 8.96492 15.5401 9.03632 15.5413H9.0453C9.18646 15.5412 9.32195 15.4857 9.42265 15.3868L16.5473 8.37899C16.5978 8.32932 16.638 8.27019 16.6656 8.20497C16.6933 8.13976 16.7078 8.06974 16.7084 7.99891C16.709 7.92808 16.6956 7.85782 16.669 7.79216C16.6425 7.7265 16.6032 7.66671 16.5535 7.61622C16.5039 7.56572 16.4447 7.5255 16.3795 7.49786C16.3143 7.47021 16.2443 7.45568 16.1735 7.4551C16.1026 7.45451 16.0324 7.46789 15.9667 7.49445C15.9011 7.52102 15.8413 7.56026 15.7908 7.60993L15.7944 7.61172Z" fill="#EBDAB2"/>
</g>
<defs>
<clipPath id="clip0_785_98">
<rect width="23" height="23" fill="white"/>
</clipPath>
</defs>
</svg>
